<svg xmlns="http://www.w3.org/2000/svg" width="1160" height="769" viewBox="0 0 1160 769">
  <path id="Rectangle_390" data-name="Rectangle 390" d="M10,0H169a10,10,0,0,1,10,10V36a0,0,0,0,1,0,0H0a0,0,0,0,1,0,0V10A10,10,0,0,1,10,0Z" transform="translate(0 71)" fill="#00e2ff"/>
  <path id="Rectangle_389" data-name="Rectangle 389" d="M0,0H179a0,0,0,0,1,0,0V100a10,10,0,0,1-10,10H10A10,10,0,0,1,0,100V0A0,0,0,0,1,0,0Z" transform="translate(0 107)" fill="#f5f5f5"/>
  <text id="Aanmelding" transform="translate(88 131)" fill="#414141" font-size="17" font-family="Helvetica" opacity="0.996"><tspan x="-44.891" y="0">Aanmelding</tspan></text>
  <rect id="Rectangle_302" data-name="Rectangle 302" width="676" height="1" transform="translate(188 44) rotate(90)" fill="#959595"/>
  <rect id="Rectangle_303" data-name="Rectangle 303" width="676" height="1" transform="translate(384 44) rotate(90)" fill="#959595"/>
  <rect id="Rectangle_304" data-name="Rectangle 304" width="677" height="1" transform="translate(580 44) rotate(90)" fill="#959595"/>
  <rect id="Rectangle_1" data-name="Rectangle 1" width="766" height="36" rx="10" transform="translate(197)" fill="#6f0"/>
  <text id="CREATIVE_DEVELOPER" data-name="CREATIVE DEVELOPER" transform="translate(575 24)" fill="#414141" font-size="17" font-family="Helvetica" opacity="0.996"><tspan x="-96.206" y="0">CREATIVE DEVELOPER</tspan></text>
  <text id="GLR" transform="translate(225 23)" fill="#414141" font-size="16" font-family="Helvetica" opacity="0.996"><tspan x="-16.449" y="0">GLR</tspan></text>
  <rect id="Rectangle_1-2" data-name="Rectangle 1" width="766" height="36" rx="10" transform="translate(196 733)" fill="#6f0"/>
  <path id="Rectangle_297" data-name="Rectangle 297" d="M10,0H169a10,10,0,0,1,10,10V36a0,0,0,0,1,0,0H0a0,0,0,0,1,0,0V10A10,10,0,0,1,10,0Z" transform="translate(392 71)" fill="#00e2ff"/>
  <text id="Enter" transform="translate(88 93)" fill="#414141" font-size="17" font-family="Helvetica" opacity="0.996"><tspan x="-20.316" y="0">Enter</tspan></text>
  <path id="Rectangle_300" data-name="Rectangle 300" d="M10,0H169a10,10,0,0,1,10,10V36a0,0,0,0,1,0,0H0a0,0,0,0,1,0,0V10A10,10,0,0,1,10,0Z" transform="translate(196 71)" fill="#00e2ff"/>
  <path id="Rectangle_332" data-name="Rectangle 332" d="M0,0H179a0,0,0,0,1,0,0V311a10,10,0,0,1-10,10H10A10,10,0,0,1,0,311V0A0,0,0,0,1,0,0Z" transform="translate(196 284)" fill="#f5f5f5"/>
  <path id="Rectangle_338" data-name="Rectangle 338" d="M10,0H169a10,10,0,0,1,10,10V34a0,0,0,0,1,0,0H0a0,0,0,0,1,0,0V10A10,10,0,0,1,10,0Z" transform="translate(196 250)" fill="#6f0"/>
  <rect id="Rectangle_376" data-name="Rectangle 376" width="179" height="36" rx="10" transform="translate(196 663)" fill="#6f0"/>
  <path id="Rectangle_339" data-name="Rectangle 339" d="M0,0H179a0,0,0,0,1,0,0V26a10,10,0,0,1-10,10H10A10,10,0,0,1,0,26V0A0,0,0,0,1,0,0Z" transform="translate(392 284)" fill="#f5f5f5"/>
  <path id="Rectangle_345" data-name="Rectangle 345" d="M0,0H179a0,0,0,0,1,0,0V25a10,10,0,0,1-10,10H10A10,10,0,0,1,0,25V0A0,0,0,0,1,0,0Z" transform="translate(392 368)" fill="#f5f5f5"/>
  <path id="Rectangle_351" data-name="Rectangle 351" d="M0,0H179a0,0,0,0,1,0,0V26a10,10,0,0,1-10,10H10A10,10,0,0,1,0,26V0A0,0,0,0,1,0,0Z" transform="translate(392 533)" fill="#f5f5f5"/>
  <path id="Rectangle_357" data-name="Rectangle 357" d="M0,0H179a0,0,0,0,1,0,0V26a10,10,0,0,1-10,10H10A10,10,0,0,1,0,26V0A0,0,0,0,1,0,0Z" transform="translate(392 449)" fill="#f5f5f5"/>
  <rect id="Rectangle_387" data-name="Rectangle 387" width="179" height="35" rx="10" transform="translate(196 617)" fill="#f5f5f5"/>
  <text id="Mission_1" data-name="Mission 1" transform="translate(283 93)" fill="#414141" font-size="17" font-family="Helvetica" opacity="0.996"><tspan x="-35.901" y="0">Mission 1</tspan></text>
  <text id="Database" transform="translate(284 306)" fill="#414141" font-size="17" font-family="Helvetica" opacity="0.996"><tspan x="-36.386" y="0">Database</tspan></text>
  <text id="Skills" transform="translate(283 271)" fill="#414141" font-size="17" font-family="Helvetica" opacity="0.996"><tspan x="-19.835" y="0">Skills</tspan></text>
  <text id="Minor_Keuzeopdr." data-name="Minor / Keuzeopdr." transform="translate(281 687)" fill="#414141" font-size="17" font-family="Helvetica" opacity="0.996"><tspan x="-71.349" y="0">Minor / Keuzeopdr.</tspan></text>
  <path id="Rectangle_322" data-name="Rectangle 322" d="M10,0H169a10,10,0,0,1,10,10V34a0,0,0,0,1,0,0H0a0,0,0,0,1,0,0V10A10,10,0,0,1,10,0Z" transform="translate(392 250)" fill="#4c4ced"/>
  <text id="AD" transform="translate(479 272)" fill="#fff" font-size="17" font-family="Helvetica" opacity="0.996"><tspan x="-11.808" y="0">AD</tspan></text>
  <path id="Rectangle_343" data-name="Rectangle 343" d="M10,0H169a10,10,0,0,1,10,10V36a0,0,0,0,1,0,0H0a0,0,0,0,1,0,0V10A10,10,0,0,1,10,0Z" transform="translate(392 332)" fill="#ffc400"/>
  <text id="ID" transform="translate(479 355)" fill="#fff" font-size="17" font-family="Helvetica" opacity="0.996"><tspan x="-8.5" y="0">ID</tspan></text>
  <path id="Rectangle_349" data-name="Rectangle 349" d="M10,0H169a10,10,0,0,1,10,10V34a0,0,0,0,1,0,0H0a0,0,0,0,1,0,0V10A10,10,0,0,1,10,0Z" transform="translate(392 499)" fill="#ff4cc3"/>
  <text id="PD" transform="translate(481 520)" fill="#fff" font-size="17" font-family="Helvetica" opacity="0.996"><tspan x="-11.808" y="0">PD</tspan></text>
  <path id="Rectangle_355" data-name="Rectangle 355" d="M10,0H169a10,10,0,0,1,10,10V36a0,0,0,0,1,0,0H0a0,0,0,0,1,0,0V10A10,10,0,0,1,10,0Z" transform="translate(392 413)" fill="#ff664c"/>
  <text id="DI" transform="translate(481 436)" fill="#fff" font-size="17" font-family="Helvetica" opacity="0.996"><tspan x="-8.5" y="0">DI</tspan></text>
  <text id="Beroepsopdrachten" transform="translate(478 307)" fill="#424241" font-size="17" font-family="Helvetica" opacity="0.996"><tspan x="-74.192" y="0">Beroepsopdrachten</tspan></text>
  <text id="Beroepsopdrachten-2" data-name="Beroepsopdrachten" transform="translate(478 390)" fill="#424241" font-size="17" font-family="Helvetica" opacity="0.996"><tspan x="-74.192" y="0">Beroepsopdrachten</tspan></text>
  <text id="Beroepsopdrachten-3" data-name="Beroepsopdrachten" transform="translate(477 555)" fill="#424241" font-size="17" font-family="Helvetica" opacity="0.996"><tspan x="-74.192" y="0">Beroepsopdrachten</tspan></text>
  <text id="Beroepsopdrachten-4" data-name="Beroepsopdrachten" transform="translate(478 471)" fill="#424241" font-size="17" font-family="Helvetica" opacity="0.996"><tspan x="-74.192" y="0">Beroepsopdrachten</tspan></text>
  <text id="Beroepsopdrachten-5" data-name="Beroepsopdrachten" transform="translate(281 639)" fill="#424241" font-size="17" font-family="Helvetica" opacity="0.996"><tspan x="-74.192" y="0">Beroepsopdrachten</tspan></text>
  <text id="Creative_coding" data-name="Creative coding" transform="translate(282 390)" fill="#414141" font-size="17" font-family="Helvetica" opacity="0.996"><tspan x="-59.06" y="0">Creative coding</tspan></text>
  <text id="Scripting" transform="translate(283 507)" fill="#414141" font-size="17" font-family="Helvetica" opacity="0.996"><tspan x="-33.07" y="0">Scripting</tspan></text>
  <text id="jaar_1" data-name="jaar 1" transform="translate(284 57)" fill="#969696" font-size="17" font-family="Helvetica" opacity="0.996"><tspan x="-21.262" y="0">jaar 1</tspan></text>
  <text id="jaar_2" data-name="jaar 2" transform="translate(480 57)" fill="#969696" font-size="17" font-family="Helvetica" opacity="0.996"><tspan x="-21.262" y="0">jaar 2</tspan></text>
  <text id="jaar_3" data-name="jaar 3" transform="translate(780 57)" fill="#969696" font-size="17" font-family="Helvetica" opacity="0.996"><tspan x="-21.262" y="0">jaar 3</tspan></text>
  <text id="Mission_2" data-name="Mission 2" transform="translate(479 93)" fill="#414141" font-size="17" font-family="Helvetica" opacity="0.996"><tspan x="-35.901" y="0">Mission 2</tspan></text>
  <path id="Rectangle_295" data-name="Rectangle 295" d="M0,0H3A6,6,0,0,1,9,6V6a6,6,0,0,1-6,6H0a0,0,0,0,1,0,0V0A0,0,0,0,1,0,0Z" transform="translate(179 82)" fill="#00e2ff"/>
  <rect id="Rectangle_296" data-name="Rectangle 296" width="11" height="2" transform="translate(186 87)" fill="#00e2ff"/>
  <path id="Rectangle_295-2" data-name="Rectangle 295" d="M0,0H3A6,6,0,0,1,9,6V6a6,6,0,0,1-6,6H0a0,0,0,0,1,0,0V0A0,0,0,0,1,0,0Z" transform="translate(374 82)" fill="#00e2ff"/>
  <rect id="Rectangle_296-2" data-name="Rectangle 296" width="11" height="2" transform="translate(381 87)" fill="#00e2ff"/>
  <path id="Rectangle_295-3" data-name="Rectangle 295" d="M0,0H3A6,6,0,0,1,9,6V6a6,6,0,0,1-6,6H0a0,0,0,0,1,0,0V0A0,0,0,0,1,0,0Z" transform="translate(570 82)" fill="#00e2ff"/>
  <rect id="Rectangle_296-3" data-name="Rectangle 296" width="11" height="2" transform="translate(577 87)" fill="#00e2ff"/>
  <path id="Rectangle_294" data-name="Rectangle 294" d="M0,0H179a0,0,0,0,1,0,0V100a10,10,0,0,1-10,10H10A10,10,0,0,1,0,100V0A0,0,0,0,1,0,0Z" transform="translate(196 107)" fill="#f5f5f5"/>
  <path id="Rectangle_306" data-name="Rectangle 306" d="M0,0H179a0,0,0,0,1,0,0V100a10,10,0,0,1-10,10H10A10,10,0,0,1,0,100V0A0,0,0,0,1,0,0Z" transform="translate(392 107)" fill="#f5f5f5"/>
  <text id="Oriëntatie" transform="translate(283 131)" fill="#414141" font-size="17" font-family="Helvetica" opacity="0.996"><tspan x="-36.851" y="0">Oriëntatie</tspan></text>
  <text id="Specialisatie" transform="translate(480 131)" fill="#414141" font-size="17" font-family="Helvetica" opacity="0.996"><tspan x="-47.721" y="0">Specialisatie</tspan></text>
  <text id="Brede_kennis_programmeertalen_Oriëntatie_keuzerichtingen" data-name="Brede kennis programmeertalen
Oriëntatie keuzerichtingen" transform="translate(229 149)" fill="#414141" font-size="9" font-family="Helvetica" opacity="0.996"><tspan x="30.734" y="7">Brede kennis </tspan><tspan x="20.233" y="17">programmeertalen</tspan><tspan x="4.72" y="27">Oriëntatie keuzerichtingen</tspan></text>
  <text id="Trigger_en_motivatie_Geïnsprireerd_en_geënthousiasmeerd_De_student_maakt_kennis_krijgt_een_studieadvies_en_een_passende_toelatingsopdracht._" data-name="Trigger en motivatie
Geïnsprireerd en geënthousiasmeerd 
De student maakt kennis, krijgt een studieadvies en een passende toelatingsopdracht. " transform="translate(3 149)" fill="#414141" font-size="8" font-family="Helvetica" opacity="0.996"><tspan x="50.799" y="6">Trigger en motivatie</tspan><tspan x="19.738" y="16">Geïnsprireerd en geënthousiasmeerd </tspan><tspan x="0.176" y="26">De student maakt kennis, krijgt een studieadvies </tspan><tspan x="20.395" y="36">en een passende toelatingsopdracht. </tspan></text>
  <text id="Beroepsgerichte_module_Je_specialiseert_je_in_1_van_de_5_keuzerichtingen._Deze_keuze_maak_je_aan_het_einde_van_leerjaar_1._De_leermodules_zijn_altijd_gekoppeld_aan_de_beroepspraktijk." data-name="Beroepsgerichte module
Je specialiseert je in 1 van de 5 
keuzerichtingen. Deze keuze maak je aan 
het einde van leerjaar 1. De leermodules zijn
altijd gekoppeld aan de beroepspraktijk." transform="translate(476 153)" fill="#414141" font-size="8" font-family="Helvetica" opacity="0.996"><tspan x="-43.359" y="0">Beroepsgerichte module</tspan><tspan x="-56.922" y="10">Je specialiseert je in 1 van de 5 </tspan><tspan x="-75.377" y="20">keuzerichtingen. Deze keuze maak je aan </tspan><tspan x="-79.156" y="30">het einde van leerjaar 1. De leermodules zijn</tspan><tspan x="-70.492" y="40">altijd gekoppeld aan de beroepspraktijk.</tspan></text>
  <path id="Rectangle_312" data-name="Rectangle 312" d="M10,0H169a10,10,0,0,1,10,10V36a0,0,0,0,1,0,0H0a0,0,0,0,1,0,0V10A10,10,0,0,1,10,0Z" transform="translate(784 71)" fill="#00e2ff"/>
  <path id="Rectangle_313" data-name="Rectangle 313" d="M10,0H169a10,10,0,0,1,10,10V36a0,0,0,0,1,0,0H0a0,0,0,0,1,0,0V10A10,10,0,0,1,10,0Z" transform="translate(588 71)" fill="#00e2ff"/>
  <text id="Mission_3" data-name="Mission 3" transform="translate(675 93)" fill="#414141" font-size="17" font-family="Helvetica" opacity="0.996"><tspan x="-35.901" y="0">Mission 3</tspan></text>
  <text id="End_mission" data-name="End mission" transform="translate(871 93)" fill="#414141" font-size="17" font-family="Helvetica" opacity="0.996"><tspan x="-46.298" y="0">End mission</tspan></text>
  <path id="Rectangle_295-4" data-name="Rectangle 295" d="M0,0H3A6,6,0,0,1,9,6V6a6,6,0,0,1-6,6H0a0,0,0,0,1,0,0V0A0,0,0,0,1,0,0Z" transform="translate(766 82)" fill="#00e2ff"/>
  <rect id="Rectangle_296-4" data-name="Rectangle 296" width="11" height="2" transform="translate(773 87)" fill="#00e2ff"/>
  <path id="Rectangle_314" data-name="Rectangle 314" d="M0,0H179a0,0,0,0,1,0,0V100a10,10,0,0,1-10,10H10A10,10,0,0,1,0,100V0A0,0,0,0,1,0,0Z" transform="translate(588 107)" fill="#f5f5f5"/>
  <path id="Rectangle_315" data-name="Rectangle 315" d="M0,0H179a0,0,0,0,1,0,0V100a10,10,0,0,1-10,10H10A10,10,0,0,1,0,100V0A0,0,0,0,1,0,0Z" transform="translate(784 107)" fill="#f5f5f5"/>
  <text id="Stage" transform="translate(676 131)" fill="#414141" font-size="17" font-family="Helvetica" opacity="0.996"><tspan x="-22.213" y="0">Stage</tspan></text>
  <text id="Beroepservaring_Op_basis_van_je_specialisatie_zoek_je_een_stage_die_bij_je_past_indien_gewenst_met_behulp_van_je_stagecoördinator._GLR_heeft_contact_met_ruim_3000_media_bedrijven." data-name="Beroepservaring
Op basis van je specialisatie zoek je een 
stage die bij je past, indien gewenst 
met behulp van je stagecoördinator. GLR heeft 
contact met ruim 3000 (media)bedrijven." transform="translate(678 153)" fill="#414141" font-size="8" font-family="Helvetica" opacity="0.996"><tspan x="-29.35" y="0">Beroepservaring</tspan><tspan x="-73.152" y="10">Op basis van je specialisatie zoek je een </tspan><tspan x="-64.264" y="20">stage die bij je past, indien gewenst </tspan><tspan x="-83.832" y="30">met behulp van je stagecoördinator. GLR heeft </tspan><tspan x="-71.588" y="40">contact met ruim 3000 (media)bedrijven.</tspan></text>
  <text id="Het_beroepsexamen_kan_opgebouwd_zijn_uit_meerdere_beroeps_opdrachten._Dit_kan_bijvoorbeeld_een_theorie-examen_een_praktijkexamen_of_een_CGI_Criterium_Gericht_Interview_zijn." data-name="Het beroepsexamen kan opgebouwd 
zijn uit meerdere (beroeps)opdrachten. 
Dit kan bijvoorbeeld een theorie-examen, 
een praktijkexamen of een CGI 
(Criterium Gericht Interview) zijn." transform="translate(872 153)" fill="#414141" font-size="8" font-family="Helvetica" opacity="0.996"><tspan x="-66.49" y="0">Het beroepsexamen kan opgebouwd </tspan><tspan x="-70.037" y="10">zijn uit meerdere (beroeps)opdrachten. </tspan><tspan x="-74.043" y="20">Dit kan bijvoorbeeld een theorie-examen, </tspan><tspan x="-56.252" y="30">een praktijkexamen of een CGI </tspan><tspan x="-58.232" y="40">(Criterium Gericht Interview) zijn.</tspan></text>
  <text id="PHP_SQL_" data-name="PHP
SQL
…" transform="translate(284 323)" fill="#414141" font-size="11" font-family="Helvetica" opacity="0.996"><tspan x="-11.309" y="0">PHP</tspan><tspan x="-11.005" y="16">SQL</tspan><tspan x="-5.5" y="32">…</tspan></text>
  <text id="Design_basics_Design_thinking_Technische_Implementatie_Digital_Humanities_" data-name="Design basics
Design thinking
Technische Implementatie
Digital Humanities
…" transform="translate(280 407)" fill="#414141" font-size="11" font-family="Helvetica" opacity="0.996"><tspan x="-34.238" y="0">Design basics</tspan><tspan x="-37.606" y="16">Design thinking</tspan><tspan x="-63.588" y="32">Technische Implementatie</tspan><tspan x="-44.322" y="48">Digital Humanities</tspan><tspan x="-5.5" y="64">…</tspan></text>
  <text id="JS_C_HTML_CSS_" data-name="JS
C#
HTML / CSS
…" transform="translate(282 524)" fill="#414141" font-size="11" font-family="Helvetica" opacity="0.996"><tspan x="-6.418" y="0">JS</tspan><tspan x="-7.031" y="16">C#</tspan><tspan x="-30.664" y="32">HTML / CSS</tspan><tspan x="-5.5" y="48">…</tspan></text>
  <rect id="Rectangle_419" data-name="Rectangle 419" width="179" height="36" rx="10" transform="translate(392 663)" fill="#6f0"/>
  <text id="Minor_Keuzeopdr.-2" data-name="Minor / Keuzeopdr." transform="translate(477 687)" fill="#414141" font-size="17" font-family="Helvetica" opacity="0.996"><tspan x="-71.349" y="0">Minor / Keuzeopdr.</tspan></text>
  <rect id="Rectangle_305" data-name="Rectangle 305" width="677" height="1" transform="translate(972 44) rotate(90)" fill="#959595"/>
  <rect id="Rectangle_241" data-name="Rectangle 241" width="179" height="36" rx="10" transform="translate(981)" fill="#6f0"/>
  <text id="Plus" transform="translate(1069 24)" fill="#414141" font-size="15" font-family="Helvetica" opacity="0.996"><tspan x="-14.59" y="0">Plus</tspan></text>
  <text id="_" data-name="+" transform="translate(1131 187)" fill="#414141" font-size="16" font-family="Calibre-Medium, Calibre" font-weight="500" opacity="0.996"><tspan x="-4.512" y="0">+</tspan></text>
  <rect id="Rectangle_258" data-name="Rectangle 258" width="179" height="44" rx="10" transform="translate(981 248)" fill="#6f0"/>
  <rect id="Rectangle_259" data-name="Rectangle 259" width="179" height="43" rx="10" transform="translate(981 375)" fill="#6f0"/>
  <rect id="Rectangle_263" data-name="Rectangle 263" width="179" height="45" rx="10" transform="translate(981 504)" fill="#6f0"/>
  <text id="_1_GLR_Extra" data-name="1 GLR Extra" transform="translate(1069 271)" fill="#414141" font-size="17" font-family="Helvetica" opacity="0.996"><tspan x="-46.767" y="0">1 GLR Extra</tspan></text>
  <text id="_2_Virtual_production" data-name="2 Virtual production" transform="translate(1068 398)" fill="#414141" font-size="17" font-family="Helvetica" opacity="0.996"><tspan x="-73.088" y="0">2 Virtual production</tspan></text>
  <text id="_3_Immersive_tech" data-name="3 Immersive tech" transform="translate(1068 528)" fill="#414141" font-size="17" font-family="Helvetica" opacity="0.996"><tspan x="-64.713" y="0">3 Immersive tech</tspan></text>
  <text id="jaar_4" data-name="jaar 4" transform="translate(1071 57)" fill="#969696" font-size="17" font-family="Helvetica" opacity="0.996"><tspan x="-21.262" y="0">jaar 4</tspan></text>
  <text id="opties:" transform="translate(1070 235)" fill="#969696" font-size="17" font-family="Helvetica" opacity="0.996"><tspan x="-25.043" y="0">opties:</tspan></text>
  <path id="Rectangle_295-5" data-name="Rectangle 295" d="M0,0H3A6,6,0,0,1,9,6V6a6,6,0,0,1-6,6H0a0,0,0,0,1,0,0V0A0,0,0,0,1,0,0Z" transform="translate(963 11)" fill="#6f0"/>
  <rect id="Rectangle_296-5" data-name="Rectangle 296" width="11" height="2" transform="translate(970 16)" fill="#6f0"/>
  <path id="Rectangle_301" data-name="Rectangle 301" d="M10,0H169a10,10,0,0,1,10,10V36a0,0,0,0,1,0,0H0a0,0,0,0,1,0,0V10A10,10,0,0,1,10,0Z" transform="translate(980 71)" fill="#00e2ff"/>
  <text id="Bonus_mission" data-name="Bonus mission" transform="translate(1067 93)" fill="#414141" font-size="17" font-family="Helvetica" opacity="0.996"><tspan x="-55.275" y="0">Bonus mission</tspan></text>
  <path id="Rectangle_260" data-name="Rectangle 260" d="M0,0H179a0,0,0,0,1,0,0V65a10,10,0,0,1-10,10H10A10,10,0,0,1,0,65V0A0,0,0,0,1,0,0Z" transform="translate(981 411)" fill="#f5f5f5"/>
  <text id="Virtuele_productie_specialist_Combinatie_van_fysieke_en_digitale_platformen_in_een_real-time_film_omgeving." data-name="Virtuele productie specialist
Combinatie van fysieke en digitale 
platformen in een real-time 
film omgeving." transform="translate(1069 430)" fill="#414141" font-size="8" font-family="Helvetica" opacity="0.996"><tspan x="-48.621" y="0">Virtuele productie specialist</tspan><tspan x="-61.813" y="10">Combinatie van fysieke en digitale </tspan><tspan x="-48.689" y="20">platformen in een real-time </tspan><tspan x="-25.787" y="30">film omgeving.</tspan></text>
  <path id="Rectangle_308" data-name="Rectangle 308" d="M0,0H179a0,0,0,0,1,0,0V63a10,10,0,0,1-10,10H10A10,10,0,0,1,0,63V0A0,0,0,0,1,0,0Z" transform="translate(981 284)" fill="#f5f5f5"/>
  <text id="Vakman_ondernemer_1_jarige_opleiding_voor_afgestudeerde_niveau_4-_studenten_gericht_op_de_Ontwikkeling_van_een_eigen_bedrijf." data-name="Vakman ondernemer
1 jarige opleiding voor afgestudeerde 
(niveau 4-) studenten gericht op de 
Ontwikkeling van een eigen bedrijf." transform="translate(1068 301)" fill="#414141" font-size="8" font-family="Helvetica" opacity="0.996"><tspan x="-37.059" y="0">Vakman ondernemer</tspan><tspan x="-66.936" y="10">1 jarige opleiding voor afgestudeerde </tspan><tspan x="-63.15" y="20">(niveau 4-) studenten gericht op de </tspan><tspan x="-62.037" y="30">Ontwikkeling van een eigen bedrijf.</tspan></text>
  <path id="Rectangle_309" data-name="Rectangle 309" d="M0,0H179a0,0,0,0,1,0,0V61a10,10,0,0,1-10,10H10A10,10,0,0,1,0,61V0A0,0,0,0,1,0,0Z" transform="translate(981 542)" fill="#f5f5f5"/>
  <text id="Immersive_technicus_Alle_zintuigen_worden_aangesproken_d.m.v_Virtual_Reality_VR_Augmented_Reality_AR_en_Mixed_Reality_MR_" data-name="Immersive technicus
Alle zintuigen worden aangesproken 
d.m.v Virtual Reality (VR), Augmented 
Reality (AR) en Mixed Reality (MR)" transform="translate(1068 559)" fill="#414141" font-size="8" font-family="Helvetica" opacity="0.996"><tspan x="-36.455" y="0">Immersive technicus</tspan><tspan x="-65.6" y="10">Alle zintuigen worden aangesproken </tspan><tspan x="-68.402" y="20">d.m.v Virtual Reality (VR), Augmented </tspan><tspan x="-62.234" y="30">Reality (AR) en Mixed Reality (MR)</tspan></text>
  <path id="Rectangle_311" data-name="Rectangle 311" d="M0,0H179a0,0,0,0,1,0,0V100a10,10,0,0,1-10,10H10A10,10,0,0,1,0,100V0A0,0,0,0,1,0,0Z" transform="translate(980 107)" fill="#f5f5f5"/>
  <text id="Doorontwikkeling" transform="translate(1070 131)" fill="#414141" font-size="17" font-family="Helvetica" opacity="0.996"><tspan x="-64.725" y="0">Doorontwikkeling</tspan></text>
  <path id="Rectangle_295-6" data-name="Rectangle 295" d="M0,0H3A6,6,0,0,1,9,6V6a6,6,0,0,1-6,6H0a0,0,0,0,1,0,0V0A0,0,0,0,1,0,0Z" transform="translate(962 82)" fill="#00e2ff"/>
  <rect id="Rectangle_296-6" data-name="Rectangle 296" width="11" height="2" transform="translate(969 87)" fill="#00e2ff"/>
  <text id="Examen" transform="translate(871 131)" fill="#414141" font-size="17" font-family="Helvetica" opacity="0.996"><tspan x="-31.182" y="0">Examen</tspan></text>
  <text id="Nadat_de_student_de_opleiding_Creative_Development_succesvol_afgerond_heeft_biedt_GLR_afgestudeerden_3_opties_tot_verdere_specialisatie_om_kansen_op_de_arbeidsmarkt_te_vergroten." data-name="Nadat de student de opleiding Creative Development succesvol afgerond heeft biedt GLR afgestudeerden 3 opties tot verdere specialisatie om kansen op de arbeidsmarkt te vergroten." transform="translate(992 149)" fill="#414141" font-size="8" font-family="Helvetica" opacity="0.996"><tspan x="11.842" y="6">Nadat de student de opleiding Creative </tspan><tspan x="2.063" y="16">Development succesvol afgerond heeft biedt </tspan><tspan x="8.51" y="26">GLR afgestudeerden 3 opties tot verdere </tspan><tspan x="3.182" y="36">specialisatie om kansen op de arbeidsmarkt </tspan><tspan x="58.543" y="46">te vergroten.</tspan></text>
  <text id="PORTFOLIO" transform="translate(575 757)" fill="#414141" font-size="17" font-family="Helvetica" opacity="0.996"><tspan x="-48.966" y="0">PORTFOLIO</tspan></text>
  <text id="GLR-2" data-name="GLR" transform="translate(225 756)" fill="#414141" font-size="16" font-family="Helvetica" opacity="0.996"><tspan x="-16.449" y="0">GLR</tspan></text>
</svg>
